# xmcd
#
# Track frame offsets: 
#        150
#        20625
#        35852
#        68632
#        116025
#        133275
#        145772
#        165315
#        176460
#        194447
#        205010
#        216337
#        233195
#        247417
#
# Disc length: 3502 seconds
#
# Revision: 1
# Processed by: cddbd v1.5.2PL0 Copyright (c) Steve Scherf et al.
# Submitted via: ExactAudioCopy v0.99pb4
#
DISCID=d80dac0e
DTITLE=Motus Quartett - Crimson Flames
DYEAR=1992
DGENRE=Jazz
TTITLE0=Some Skunk Funk
TTITLE1=Peaches en Regalia
TTITLE2=Goodbye Prok Pie Hat
TTITLE3=Meditations
TTITLE4=Caravan
TTITLE5=Karminrote Flammen: I. Prolog: Mit erhobenem Zeigefinger - ein 
TTITLE5=grauer Flanellzwerg
TTITLE6=Karminrote Flammen: II. Die Himmel brennen....
TTITLE7=Karminrote Flammen: III. Der 3.Weltkrieg, von der Tribüne aus 
TTITLE7=gesehen
TTITLE8=Karminrote Flammen: IV. Sprich dein Zauberwort!
TTITLE9=Karminrote Flammen: V. Es muß doch irgend einen Ausweg geben!?
TTITLE10=Karminrote Flammen: VI. Wit zurück, auf einer endlosen Landst
TTITLE10=raße...
TTITLE11=Karminrote Flammen: VII. Eines Tages...
TTITLE12=Karminrote Flammen: VIII. Epilog: Der Freudenspender kommt!
TTITLE13=I'll Be Your Baby Tonight
EXTD=YEAR: 1992
EXTT0=
EXTT1=
EXTT2=
EXTT3=
EXTT4=
EXTT5=
EXTT6=
EXTT7=
EXTT8=
EXTT9=
EXTT10=
EXTT11=
EXTT12=
EXTT13=
PLAYORDER=
